<svg width="290" height="78" viewBox="0 0 290 78" fill="none" xmlns="http://www.w3.org/2000/svg">
<path d="M233.71 33.7065C243.499 27.3113 252.375 39.7459 246.929 48.7437C244.018 53.5546 236.325 54.6362 232.469 50.3901V61.1294H227.676V32.3813H232.302V35.0249L233.71 33.7065ZM280.017 31.9341C283.092 31.6186 286.456 32.3103 288.64 34.6118L286.057 37.6421C284.147 36.3947 282.009 35.6021 279.712 36.2563C276.874 37.0661 277.152 39.7238 280.154 40.2905C283.648 40.9497 288.95 40.4492 289.465 45.5181C290.413 54.8232 277.092 55.1804 272.476 49.7876L275.012 46.2612C276.962 48.4371 280.573 49.6102 283.354 48.4868C285.014 47.816 285.48 45.8241 283.803 44.9038C282.613 44.2514 280.593 44.4689 279.189 44.231C270.408 42.7439 271.589 32.7982 280.017 31.9341ZM251.222 46.0933C249.025 37.6523 254.721 30.1217 263.702 32.1255C267.195 32.9053 270.469 36.5712 270.469 40.229V44.2769H255.764C256.402 49.5242 263.22 49.6883 266.563 46.7739L269.461 49.979C263.916 55.1404 253.34 54.2335 251.222 46.0933ZM161.554 31.9351C175.515 31.1326 176.377 54.4748 160.681 53.0308C149.058 51.9615 148.999 32.6571 161.554 31.9351ZM214.096 31.9351C227.65 31.4034 228.22 51.9092 216.027 53.0327C201.05 54.4118 201.196 32.4406 214.096 31.9351ZM111.197 44.1948C111.197 47.0662 114.456 48.9348 117.115 48.2954C118.697 47.9154 120.779 45.6687 120.78 44.0298V32.3813H125.571V52.5386H121.11V49.73C120.411 50.0043 120.004 50.853 119.371 51.3784C114.066 55.7765 106.405 51.0362 106.405 44.5249V32.3813H111.197V44.1948ZM77.4085 23.6245C83.4653 24.307 86.9162 30.6273 83.7688 35.9341L81.7884 37.7495C87.9971 41.6553 87.0324 50.0835 79.7679 52.0894C79.3878 52.1934 78.0211 52.5386 77.7386 52.5386H62.2903V23.6245H77.4085ZM134.329 35.0249C139.881 28.9714 148.267 32.6159 148.866 40.561C149.163 44.5181 148.535 48.5964 149.033 52.5386H144.074V41.0552C144.074 40.8263 143.629 39.4488 143.496 39.1558C142.239 36.385 138.465 35.9077 136.232 37.8374C135.688 38.3066 134.494 40.2308 134.493 40.8901V52.5386H129.701V32.3813H134.162L134.329 35.0249ZM188.519 47.3335L188.767 47.5815H202.728V52.5386H183.397V23.6245H188.519V47.3335ZM94.6927 33.3071C96.4754 31.7673 99.2067 31.5687 101.412 32.1685C101.961 32.3174 104.079 33.2039 104.088 33.7788L102.106 37.9976C100.333 36.9402 98.8131 36.3219 96.7298 36.9976C95.023 37.551 93.6809 39.4283 93.6809 41.2192V52.5366H88.8899V32.3794H93.5159L93.5179 32.3813V34.3628C93.7658 34.6396 94.5437 33.4365 94.6927 33.3071ZM215.518 48.3931C222.008 47.5323 221.312 35.4947 213.59 36.7173C207.722 37.6458 207.905 49.4038 215.518 48.3931ZM162.975 48.3901C169.548 47.5917 168.83 35.4885 161.05 36.7173C155.229 37.6376 155.324 49.3187 162.975 48.3901ZM237.89 36.7153C231.068 37.1565 231.281 48.4014 238.334 48.2544C245.708 48.1007 245.072 36.2511 237.89 36.7153ZM67.4124 47.3335L67.6604 47.5815H77.0774C77.7168 47.5815 79.0617 46.8796 79.5608 46.4302C81.6327 44.5665 80.3771 41.7564 78.1516 40.7271C77.942 40.6297 76.5323 40.15 76.4173 40.1489H67.4124V47.3335ZM265.644 38.7759C263.95 34.7016 256.302 35.747 255.929 40.312H265.76C266.103 40.0641 265.791 39.1329 265.644 38.7759ZM67.4124 28.8296V35.1079L67.6604 35.355H76.2513C76.8427 35.355 78.3385 34.8631 78.8177 34.4517C80.9192 32.6425 79.4386 29.4965 76.9983 28.8257C76.8293 28.7793 75.846 28.5817 75.7561 28.5815H67.6604L67.4124 28.8296Z" fill="#1C4E4C"/>
<path d="M51.2729 77.7344C51.2442 78.0037 51.0573 78.0467 50.9667 77.9591L50.8566 77.6138C50.7803 72.839 50.8141 67.9914 50.8113 63.1885C50.8049 51.6941 50.8004 39.9916 50.8113 28.5071C50.8136 26.161 50.7229 22.9508 50.8124 20.7319C50.8703 19.2945 51.2723 19.9207 51.2723 20.2395V77.7361L51.2729 77.7344Z" fill="#1C4E4C"/>
<path d="M15.5859 6.9082C13.1441 21.2177 19.097 30.8273 27.7627 41.3848L28.2529 41.6338C28.2992 41.3248 28.4418 41.011 28.6152 40.7549C32.977 34.3377 41.428 30.7457 40.8184 21.7197C40.7143 20.1766 40.2304 18.6597 39.8223 17.1826C42.1155 18.9174 43.7216 22.1544 44.3643 24.9482C46.4014 33.7857 41.3437 36.2921 36.0996 41.7988C35.5363 42.3903 31.9861 46.1834 31.9229 46.5391C32.6267 47.8691 33.5836 49.057 34.2891 50.3887C37.192 55.869 37.3159 61.8484 35.4043 67.7021C34.1222 71.6276 31.5959 75.7281 28.0918 77.9834C30.4131 70.2992 31.6616 63.1021 27.6221 55.7334C22.1086 45.6765 9.80352 35.839 8.28516 24.0176C7.18334 15.4395 11.7564 6.39722 17.1045 0L15.5859 6.9082ZM22.4356 62.9785C25.2459 62.582 25.4033 67.1707 22.7168 67.25C19.9809 67.3309 19.7412 63.3605 22.4356 62.9785ZM20.9414 55.3848C25.6533 54.4133 24.7766 61.5374 20.7852 60.2559C18.3582 59.4761 18.8962 55.8064 20.9414 55.3848ZM17.3057 47.7852C20.3687 47.1543 22.2764 50.452 20.2988 52.7617C19.4561 53.7462 17.842 54.0154 16.6807 53.457C14.399 52.3632 14.7679 48.3072 17.3057 47.7852ZM12.1895 40.5205C16.5248 39.9026 17.8498 45.6582 14.3291 47.4492C9.20236 50.0564 7.02811 41.2558 12.1895 40.5205ZM6.40235 34.8994C8.74329 34.4998 10.2018 36.0911 9.89942 38.3975C9.77696 39.3275 8.73656 40.5774 7.81153 40.7676C3.49764 41.6565 2.84651 35.5038 6.4004 34.8975L6.40235 34.8994ZM2.28223 29.1104C5.92673 28.8034 5.59421 35.3939 1.49024 33.9482C-0.954842 33.0873 -0.179497 29.3185 2.28223 29.1104ZM27.0557 17.8818C35.7644 16.5237 36.5972 29.3133 28.6484 30.0469C21.0203 30.7507 20.1612 18.9559 27.0557 17.8818Z" fill="url(#paint0_linear_187_113)"/>
<path d="M81.2769 62.8689C82.6185 62.6405 84.2716 62.8473 85.3541 63.6931L84.69 64.5447C83.3389 63.2711 79.5517 63.676 80.0162 65.9714C80.4196 67.9529 85.2616 67.2641 85.8492 70.1687C86.6073 73.9273 80.8936 74.822 78.648 72.7937L79.3082 71.9675C80.9703 73.386 85.4033 73.0258 84.5474 70.1228C84.1175 68.6596 80.496 68.6811 79.4039 67.3767C77.9857 65.6833 79.2946 63.2099 81.275 62.8728L81.2769 62.8689ZM100.805 62.866C109.332 61.6235 109.301 74.6205 101.139 73.8162C94.9499 73.2063 95.0484 63.7055 100.805 62.866ZM178.798 62.7839V69.6707C178.799 70.0029 179.255 71.1779 179.49 71.5017C181.014 73.6039 184.81 72.7273 185.195 70.241C185.535 68.0393 184.983 65.0729 185.207 62.7859H186.372V70.8337C186.372 71.1265 185.575 72.4137 185.302 72.6746C183.729 74.1837 180.449 74.3001 178.887 72.6824C176.635 70.3468 178.177 65.6992 177.631 62.782H178.796L178.798 62.7839ZM68.899 61.4675H63.064C62.5307 61.468 62.9417 62.6899 62.9302 62.9226C62.8958 63.681 62.5672 64.5503 62.8599 65.3611C63.1352 65.7469 66.6478 65.8786 67.2808 65.5896L67.5601 66.7048H62.9683C62.9626 69.0112 62.4576 71.4168 62.9683 73.6863H61.6295V60.3035H68.899V61.4675ZM74.0211 73.6863H72.8648V62.782H74.0211V73.6863ZM91.5338 73.6863H90.3775V63.366L91.1509 63.074L90.3775 62.7839L91.5338 62.782V73.6863ZM118.631 63.7556H114.946V73.6863H113.588V64.0496C113.588 63.522 112.124 63.9753 111.748 63.9714C111.112 63.9656 110.462 63.7732 109.824 63.7791L109.71 62.7839H118.631V63.7556ZM128.379 63.7556H123.699L123.412 64.0476V66.9685C124.338 67.5098 126.019 67.3232 127.04 67.0662V68.2341H123.412V72.4207L123.699 72.7126H128.379V73.6863H122.266V62.782H128.379V63.7556ZM132.675 62.8308C133.804 62.943 135.19 62.678 136.281 62.8308C138.539 63.1461 139.57 65.1735 139.015 67.2859C138.781 68.1777 137.331 69.0121 137.37 69.281L140.276 73.6628C139.935 73.6396 139.535 73.7267 139.208 73.6628C138.253 73.469 136.756 69.7141 135.852 69.4509C135.511 69.3523 134.129 69.312 133.93 69.5906L133.847 73.6667H132.675V62.8308ZM173.789 63.7576L168.894 63.8416C168.539 64.0849 169.164 66.3981 168.711 67.0662H172.421V68.2361C171.613 68.2186 170.794 68.2594 169.982 68.2341C169.623 68.2224 168.855 67.7963 168.73 68.3474C168.709 68.4428 168.933 69.6317 168.914 70.0935C168.877 70.9522 168.363 72.0272 169.002 72.7126H173.689C173.731 72.7113 173.912 72.4212 173.98 72.5183V73.6863H167.732L167.537 62.782H173.789V63.7576ZM198.927 63.7576L195.242 63.95V73.6843L193.882 73.6863L193.871 63.7654L190.2 63.95L190.005 62.782H198.925L198.927 63.7576ZM152.667 73.6531L152.665 73.655C152.321 73.591 151.588 73.7781 151.345 73.6248C151.139 73.4943 150.052 70.3855 149.794 69.8923L146.302 69.8669L144.741 73.6326L143.414 73.6531L147.85 62.782L152.667 73.6531ZM209.337 73.656L209.336 73.6541L208.21 73.6228L206.735 69.9636C206.413 69.5732 203.639 69.7805 202.972 69.864C202.481 70.3709 201.745 73.4075 201.404 73.6248C201.163 73.7762 200.429 73.5941 200.086 73.6541L204.807 62.782L209.337 73.656ZM160.359 62.782C160.762 62.7824 162.22 63.5478 162.553 63.8728C163.704 64.9885 163.702 67.5852 162.478 68.6267C162.334 68.7494 161.205 69.4031 161.128 69.4031H158.241L157.953 69.6951V73.6843H156.797V62.782H160.359ZM106.043 67.5652C105.78 65.315 103.442 63.4699 101.189 63.825C98.3088 64.2785 96.9093 68.0414 98.2584 70.5232C100.548 74.7322 106.597 72.3126 106.043 67.5652ZM148.228 65.697C147.75 65.2447 146.998 68.1402 146.712 68.3503C146.643 69.0588 149.075 68.9411 149.182 68.4988L148.228 65.697ZM203.552 68.6013H206.058C206.205 68.4576 204.973 65.4998 204.805 65.4998L203.552 68.6013ZM137.547 64.8621C136.672 63.6222 135.355 64.0481 134.042 63.9939L133.93 68.2615C136.099 69.1475 139.249 67.2687 137.547 64.8621ZM162.041 67.2097C163.097 64.562 159.976 63.0432 157.953 64.0476V68.4285C159.167 68.4674 161.476 68.6206 162.041 67.2097Z" fill="#1C4E4C"/>
<defs>
<linearGradient id="paint0_linear_187_113" x1="14.0849" y1="-37.2921" x2="55.4659" y2="-34.7188" gradientUnits="userSpaceOnUse">
<stop stop-color="#43B8B4"/>
<stop offset="1" stop-color="#1E5250"/>
</linearGradient>
</defs>
</svg>
