<svg width="187" height="187" viewBox="0 0 187 187" fill="none" xmlns="http://www.w3.org/2000/svg">
<path d="M22.2172 131.188C22.3579 131.451 22.4252 131.736 22.4191 132.041C22.413 132.347 22.3347 132.63 22.1843 132.892C22.0195 133.149 21.7866 133.358 21.4856 133.519C21.194 133.675 20.9002 133.747 20.6041 133.736C20.2936 133.72 20.0097 133.63 19.7525 133.465C19.4952 133.301 19.2962 133.086 19.1556 132.823C19.0049 132.541 18.9351 132.252 18.9462 131.956C18.9523 131.65 19.0378 131.369 19.2026 131.112C19.353 130.85 19.574 130.641 19.8655 130.486C20.1665 130.325 20.4723 130.252 20.7828 130.268C21.0789 130.279 21.3555 130.367 21.6128 130.532C21.865 130.687 22.0665 130.906 22.2172 131.188Z" fill="#263333" fill-opacity="0.6"/>
<path d="M39.1562 149.315L29.0513 152.295L28.1645 151.268L32.5814 141.697L33.5219 142.787L29.3727 151.493L29.0144 151.077L38.2336 148.246L39.1562 149.315ZM36.1306 149.481L35.0584 149.918L31.5291 145.828L32.0997 144.811L36.1306 149.481Z" fill="#263333" fill-opacity="0.6"/>
<path d="M49.8082 157.809L43.8234 165.312L42.9445 164.61L42.8984 154.489L43.3592 154.857L38.4432 161.02L37.3714 160.165L43.3562 152.662L44.235 153.363L44.2812 163.485L43.8203 163.117L48.7364 156.954L49.8082 157.809Z" fill="#263333" fill-opacity="0.6"/>
<path d="M59.2989 162.953C60.4169 163.537 61.1287 164.317 61.4343 165.291C61.74 166.265 61.5712 167.368 60.9279 168.6L58.4013 173.436L57.1861 172.801L59.6873 168.013C60.1825 167.066 60.3378 166.265 60.1531 165.612C59.9604 164.954 59.4833 164.426 58.7218 164.029C57.9522 163.627 57.2465 163.536 56.6048 163.758C55.9551 163.975 55.3826 164.558 54.8874 165.506L52.3862 170.294L51.2075 169.678L53.7341 164.841C54.3774 163.61 55.1862 162.841 56.1605 162.536C57.1268 162.226 58.1729 162.365 59.2989 162.953Z" fill="#263333" fill-opacity="0.6"/>
<path d="M74.0536 168.75L71.1367 177.893L69.8305 177.477L72.3849 169.47L67.4347 167.891L67.7972 166.754L74.0536 168.75Z" fill="#263333" fill-opacity="0.6"/>
<path d="M85.0466 170.355C85.7714 170.452 86.4302 170.664 87.0228 170.991C87.6065 171.318 88.0959 171.729 88.4911 172.224C88.8852 172.728 89.1699 173.291 89.3454 173.914C89.5209 174.536 89.5623 175.197 89.4696 175.894C89.3769 176.592 89.1647 177.218 88.8327 177.773C88.5008 178.329 88.0795 178.794 87.5687 179.168C87.0567 179.552 86.4764 179.826 85.8278 179.988C85.1792 180.151 84.4879 180.184 83.754 180.086C83.0292 179.99 82.3795 179.779 81.805 179.454C81.2202 179.137 80.7307 178.726 80.3367 178.222C79.9324 177.725 79.647 177.167 79.4806 176.545C79.3051 175.922 79.2643 175.258 79.3582 174.551C79.4521 173.844 79.665 173.213 79.9969 172.658C80.3197 172.102 80.7417 171.632 81.2627 171.25C81.7735 170.875 82.3532 170.606 83.0018 170.443C83.6402 170.288 84.3217 170.259 85.0466 170.355ZM84.8859 171.565C84.3604 171.495 83.8636 171.521 83.3956 171.644C82.9185 171.765 82.4952 171.967 82.1257 172.249C81.746 172.54 81.436 172.895 81.1958 173.315C80.9466 173.734 80.7871 174.206 80.7173 174.732C80.6475 175.257 80.6782 175.754 80.8095 176.224C80.9317 176.692 81.1388 177.111 81.4307 177.482C81.7124 177.86 82.0677 178.17 82.4966 178.412C82.9165 178.652 83.3892 178.807 83.9147 178.877C84.4493 178.948 84.9551 178.923 85.4322 178.802C85.9002 178.679 86.3241 178.473 86.7039 178.182C87.0824 177.901 87.3963 177.55 87.6456 177.132C87.8858 176.712 88.0407 176.239 88.1105 175.714C88.1803 175.188 88.1541 174.691 88.0319 174.223C87.9006 173.754 87.6896 173.33 87.3989 172.95C87.107 172.579 86.7511 172.274 86.3312 172.034C85.9022 171.792 85.4205 171.636 84.8859 171.565Z" fill="#263333" fill-opacity="0.6"/>
<path d="M98.258 170.725C98.9882 170.687 99.6698 170.771 100.303 170.976C100.927 171.191 101.479 171.505 101.958 171.92C102.428 172.344 102.807 172.846 103.093 173.426C103.38 174.006 103.541 174.652 103.578 175.364C103.615 176.076 103.521 176.735 103.296 177.342C103.072 177.948 102.742 178.482 102.309 178.944C101.875 179.415 101.359 179.785 100.76 180.054C100.152 180.333 99.483 180.491 98.7528 180.529C98.0134 180.567 97.3268 180.475 96.6929 180.251C96.0503 180.037 95.4971 179.695 95.0334 179.225L95.8786 178.317C96.2636 178.681 96.689 178.943 97.1549 179.102C97.6212 179.27 98.1145 179.34 98.6348 179.313C99.1733 179.285 99.6706 179.168 100.127 178.961C100.574 178.755 100.957 178.479 101.278 178.133C101.599 177.787 101.843 177.38 102.011 176.914C102.17 176.457 102.236 175.964 102.209 175.435C102.181 174.905 102.065 174.417 101.858 173.97C101.644 173.533 101.359 173.159 101.004 172.848C100.649 172.537 100.239 172.302 99.773 172.143C99.298 171.984 98.7913 171.919 98.2527 171.947C97.7325 171.974 97.2489 172.091 96.8019 172.297C96.3555 172.512 95.9599 172.826 95.6152 173.237L94.6805 172.421C95.093 171.905 95.6076 171.503 96.2241 171.215C96.8316 170.927 97.5095 170.764 98.258 170.725Z" fill="#263333" fill-opacity="0.6"/>
<path d="M126.19 163.873L129.426 172.908L128.368 173.287L121.87 167.91L122.437 167.707L120.882 175.968L119.823 176.347L116.574 167.317L117.814 166.873L120.364 173.954L120.067 174.061L121.485 166.796L122.079 166.583L127.812 171.287L127.489 171.403L124.951 164.317L126.19 163.873Z" fill="#263333" fill-opacity="0.6"/>
<path d="M137.582 157.366L142.519 165.596L136.712 169.08L136.098 168.057L140.73 165.279L137.02 159.095L132.223 161.972L131.61 160.949L137.582 157.366ZM138.72 161.688L139.319 162.687L135.087 165.226L134.488 164.227L138.72 161.688Z" fill="#263333" fill-opacity="0.6"/>
<path d="M154.45 141.698L158.417 151.458L157.482 152.442L147.521 148.995L148.512 147.951L157.586 151.218L157.208 151.615L153.477 142.722L154.45 141.698ZM154.915 144.692L155.456 145.716L151.736 149.633L150.667 149.166L154.915 144.692Z" fill="#263333" fill-opacity="0.6"/>
<path d="M159.035 134.937L165.989 139.657L167.837 136.934L168.824 137.604L164.366 144.172L163.38 143.502L165.227 140.78L158.273 136.06L159.035 134.937Z" fill="#263333" fill-opacity="0.6"/>
<path d="M164.291 124.799C164.605 124.139 165.004 123.554 165.488 123.046C165.98 122.541 166.47 122.191 166.957 121.998L167.705 122.914C167.259 123.107 166.82 123.415 166.387 123.837C165.954 124.258 165.606 124.746 165.344 125.299C165.105 125.803 164.968 126.239 164.935 126.608C164.902 126.976 164.949 127.282 165.077 127.525C165.212 127.771 165.408 127.955 165.664 128.077C165.962 128.218 166.248 128.233 166.524 128.121C166.796 128.017 167.06 127.834 167.316 127.571C167.576 127.32 167.836 127.029 168.095 126.696C168.354 126.364 168.627 126.033 168.915 125.705C169.207 125.388 169.514 125.114 169.837 124.882C170.155 124.659 170.504 124.521 170.883 124.468C171.27 124.42 171.695 124.505 172.158 124.725C172.603 124.936 172.957 125.246 173.219 125.653C173.485 126.073 173.614 126.579 173.606 127.172C173.602 127.778 173.42 128.46 173.059 129.22C172.82 129.723 172.517 130.192 172.149 130.624C171.782 131.057 171.388 131.396 170.968 131.642L170.171 130.763C170.596 130.509 170.959 130.201 171.263 129.839C171.574 129.481 171.822 129.108 172.006 128.72C172.237 128.233 172.366 127.803 172.391 127.43C172.416 127.058 172.36 126.748 172.225 126.502C172.085 126.263 171.887 126.083 171.631 125.962C171.325 125.817 171.037 125.796 170.765 125.9C170.489 126.012 170.225 126.195 169.973 126.449C169.717 126.712 169.455 127.008 169.188 127.336C168.929 127.669 168.657 127.995 168.374 128.316C168.086 128.645 167.783 128.921 167.465 129.144C167.142 129.375 166.791 129.517 166.412 129.57C166.033 129.623 165.617 129.541 165.162 129.326C164.725 129.118 164.373 128.804 164.107 128.385C163.849 127.969 163.724 127.454 163.732 126.841C163.744 126.239 163.93 125.559 164.291 124.799Z" fill="#263333" fill-opacity="0.6"/>
<path d="M168.28 114.568L177.417 117.505L176.997 118.81L167.861 115.874L168.28 114.568Z" fill="#263333" fill-opacity="0.6"/>
<path d="M170.621 102.704L180.064 104.414L179.82 105.763L171.55 104.265L170.624 109.378L169.451 109.166L170.621 102.704Z" fill="#263333" fill-opacity="0.6"/>
<path d="M171.018 87.2759L180.571 91.7181L180.557 93.0753L170.917 97.3385L170.931 95.899L179.799 92.108L179.794 92.6563L171.004 88.6879L171.018 87.2759ZM173.398 89.1507L174.491 89.5319L174.437 94.9333L173.336 95.3199L173.398 89.1507Z" fill="#263333" fill-opacity="0.6"/>
<path d="M170.144 80.571L179.66 79.3328L179.837 80.6923L170.321 81.9305L170.144 80.571Z" fill="#263333" fill-opacity="0.6"/>
<path d="M167.714 71.4654C167.519 70.7608 167.452 70.0773 167.515 69.4149C167.589 68.7588 167.777 68.152 168.077 67.5943C168.389 67.043 168.797 66.5647 169.301 66.1593C169.805 65.7539 170.401 65.4559 171.088 65.2653C171.775 65.0747 172.439 65.0233 173.079 65.1111C173.72 65.1989 174.313 65.4044 174.858 65.7274C175.412 66.0481 175.885 66.4717 176.278 66.9983C176.682 67.5312 176.981 68.15 177.177 68.8546C177.375 69.568 177.433 70.2583 177.353 70.9256C177.284 71.5993 177.07 72.2135 176.712 72.7682L175.641 72.1403C175.913 71.6854 176.076 71.2134 176.13 70.7241C176.193 70.2324 176.155 69.7356 176.016 69.2336C175.872 68.7139 175.649 68.254 175.348 67.8537C175.05 67.4622 174.697 67.1474 174.29 66.9095C173.882 66.6716 173.433 66.5213 172.941 66.4585C172.461 66.402 171.965 66.4447 171.454 66.5864C170.943 66.7281 170.492 66.9481 170.101 67.2464C169.72 67.5511 169.417 67.9103 169.19 68.3242C168.964 68.738 168.823 69.1895 168.769 69.6788C168.718 70.1768 168.764 70.6856 168.908 71.2053C169.047 71.7073 169.266 72.1541 169.565 72.5456C169.872 72.9346 170.263 73.2528 170.74 73.5L170.146 74.5896C169.553 74.2988 169.049 73.8837 168.634 73.3444C168.221 72.814 167.914 72.1876 167.714 71.4654Z" fill="#263333" fill-opacity="0.6"/>
<path d="M161.25 55.3643L169.911 51.229L172.829 57.3407L171.753 57.8547L169.425 52.9802L162.918 56.0875L165.328 61.1353L164.252 61.6492L161.25 55.3643ZM165.66 54.6411L166.712 54.1389L168.839 58.5928L167.787 59.095L165.66 54.6411Z" fill="#263333" fill-opacity="0.6"/>
<path d="M153.521 44.0567L161.345 38.499L163.512 41.5504C163.999 42.2359 164.307 42.8976 164.435 43.5354C164.563 44.1733 164.514 44.7681 164.29 45.3201C164.065 45.872 163.67 46.3491 163.103 46.7513C162.537 47.1536 161.956 47.3699 161.361 47.4002C160.774 47.4252 160.196 47.275 159.628 46.9494C159.068 46.6186 158.545 46.1104 158.058 45.4249L156.327 42.9882L157.21 43.1181L154.315 45.1744L153.521 44.0567ZM157.098 43.1974L157.299 42.2975L159.006 44.7006C159.515 45.4159 160.051 45.8476 160.616 45.9957C161.186 46.1513 161.751 46.0306 162.309 45.6336C162.868 45.2366 163.168 44.7434 163.209 44.1538C163.255 43.5716 163.024 42.9229 162.516 42.2076L160.809 39.8045L161.725 39.9105L157.098 43.1974Z" fill="#263333" fill-opacity="0.6"/>
<path d="M146.784 37.1332C146.267 36.6161 145.851 36.044 145.534 35.4171C145.224 34.7837 145.059 34.2052 145.04 33.6817L146.155 33.2844C146.187 33.7691 146.329 34.2862 146.581 34.8356C146.833 35.385 147.175 35.8762 147.608 36.3093C148.003 36.7036 148.368 36.9784 148.704 37.1336C149.04 37.2887 149.344 37.3469 149.615 37.3082C149.893 37.263 150.132 37.1403 150.332 36.94C150.565 36.7073 150.675 36.4424 150.662 36.1451C150.656 35.8542 150.572 35.544 150.41 35.2144C150.262 34.8847 150.074 34.5422 149.848 34.1867C149.622 33.8312 149.402 33.4627 149.189 33.0814C148.989 32.7 148.834 32.3187 148.724 31.9373C148.621 31.5625 148.608 31.1876 148.685 30.8128C148.77 30.4315 148.993 30.0599 149.355 29.6981C149.704 29.3491 150.114 29.1198 150.586 29.01C151.071 28.9002 151.591 28.9487 152.147 29.1557C152.715 29.3626 153.297 29.7634 153.891 30.3581C154.286 30.7524 154.625 31.1952 154.909 31.6864C155.193 32.1776 155.381 32.6624 155.471 33.1407L154.376 33.5961C154.279 33.1114 154.111 32.6654 153.872 32.2582C153.639 31.8445 153.371 31.4858 153.067 31.182C152.686 30.8006 152.324 30.5355 151.982 30.3868C151.639 30.2381 151.329 30.1864 151.051 30.2315C150.78 30.2832 150.544 30.4092 150.343 30.6095C150.104 30.8486 149.988 31.1135 149.994 31.4044C150.007 31.7017 150.091 32.0119 150.246 32.3351C150.408 32.6647 150.598 33.0105 150.818 33.3725C151.044 33.728 151.26 34.0932 151.467 34.4681C151.68 34.8494 151.839 35.2275 151.942 35.6024C152.052 35.9837 152.068 36.3618 151.99 36.7367C151.913 37.1115 151.696 37.4766 151.34 37.832C150.998 38.1745 150.584 38.4006 150.099 38.5104C149.621 38.6137 149.094 38.5587 148.519 38.3453C147.957 38.1319 147.379 37.7279 146.784 37.1332Z" fill="#263333" fill-opacity="0.6"/>
<path d="M134.357 27.2378L139.951 19.4397L145.454 23.3874L144.759 24.3566L140.37 21.208L136.166 27.0677L140.711 30.3282L140.016 31.2974L134.357 27.2378ZM137.872 24.4781L138.551 23.5312L142.562 26.4081L141.882 27.355L137.872 24.4781Z" fill="#263333" fill-opacity="0.6"/>
<path d="M112.717 17.8611L119.999 10.2869L122.063 11.0317L122.84 21.5156L120.648 20.7242L120.224 11.5631L121.049 11.861L114.858 18.6339L112.717 17.8611ZM115.427 16.6531L116.554 15.2671L121.197 16.9431L121.192 18.734L115.427 16.6531Z" fill="#263333" fill-opacity="0.6"/>
<path d="M104.135 16.3733L105.484 8.7037L102.459 8.17177L102.773 6.3894L111.009 7.83796L110.696 9.62032L107.671 9.08839L106.323 16.758L104.135 16.3733Z" fill="#263333" fill-opacity="0.6"/>
<path d="M91.8859 15.9572C90.524 15.9514 89.4608 15.5675 88.6963 14.8056C87.9318 14.0438 87.5525 12.9591 87.5585 11.5515L87.5814 6.17725L89.8024 6.18671L89.7799 11.4787C89.776 12.3927 89.9605 13.0516 90.3336 13.4553C90.7066 13.8591 91.2313 14.0624 91.9076 14.0653C92.584 14.0682 93.1104 13.8693 93.4868 13.4688C93.8633 13.0682 94.0535 12.4109 94.0574 11.4969L94.0799 6.20493L96.2735 6.21428L96.2506 11.5885C96.2446 12.9961 95.8561 14.0775 95.0851 14.8329C94.3141 15.5882 93.2477 15.963 91.8859 15.9572Z" fill="#263333" fill-opacity="0.6"/>
<path d="M74.6413 17.8149L73.0083 8.35785L80.1551 7.12378L80.4583 8.88008L75.4866 9.73857L76.5131 15.683L81.6604 14.7942L81.9637 16.5505L74.6413 17.8149ZM75.9731 13.5224L75.6791 11.8201L80.232 11.0339L80.5259 12.7362L75.9731 13.5224Z" fill="#263333" fill-opacity="0.6"/>
<path d="M61.5533 22.3393L58.2873 13.3152L62.1934 11.9015C63.0013 11.6091 63.7457 11.4903 64.4265 11.5453C65.1042 11.5916 65.6908 11.8021 66.1861 12.1769C66.6813 12.5517 67.0519 13.0786 67.2976 13.7575C67.5402 14.4279 67.5912 15.0656 67.4505 15.6706C67.3098 16.2755 66.9954 16.817 66.5074 17.2949C66.0163 17.7643 65.3668 18.1451 64.559 18.4375L61.813 19.4313L62.4006 18.1543L63.6417 21.5835L61.5533 22.3393ZM62.4846 18.3864L61.1972 17.7296L63.8271 16.7778C64.4716 16.5445 64.9032 16.2328 65.1216 15.8427C65.3401 15.4526 65.3607 15.0126 65.1834 14.5227C65.0029 14.0243 64.704 13.6951 64.2864 13.5351C63.8689 13.3752 63.3379 13.4119 62.6933 13.6451L60.0634 14.597L60.6323 13.2684L62.4846 18.3864Z" fill="#263333" fill-opacity="0.6"/>
<path d="M47.9073 30.0893L46.7499 19.6461L48.6429 18.5378L57.1949 24.6518L55.1836 25.8293L47.874 20.2907L48.6312 19.8474L49.8713 28.9394L47.9073 30.0893ZM48.7139 27.234L48.3707 25.4809L52.63 22.9872L54.0026 24.1377L48.7139 27.234Z" fill="#263333" fill-opacity="0.6"/>
<path d="M38.2481 38.4529L31.9788 31.1867L35.0825 28.5088C36.0928 27.6371 37.0812 27.1947 38.0478 27.1816C39.0084 27.1616 39.8439 27.5634 40.5545 28.3869C41.0202 28.9267 41.2952 29.5042 41.3795 30.1196C41.4578 30.728 41.3512 31.3391 41.0598 31.9527C40.7683 32.5663 40.2974 33.1538 39.6469 33.715L37.4359 35.6227L37.5474 34.2409L39.9297 37.002L38.2481 38.4529ZM42.8673 34.4674L38.7759 33.3981L40.5717 31.8487L44.6839 32.9L42.8673 34.4674ZM37.7086 34.4277L36.2805 34.2837L38.3981 32.4566C38.9171 32.0088 39.2091 31.5637 39.2741 31.1213C39.3331 30.672 39.1924 30.2502 38.8521 29.8557C38.5058 29.4543 38.1091 29.2534 37.662 29.2529C37.2149 29.2523 36.7318 29.476 36.2128 29.9238L34.0952 31.7509L34.153 30.3067L37.7086 34.4277Z" fill="#263333" fill-opacity="0.6"/>
<path d="M29.7758 48.4989L22.3479 42.4219L26.9404 36.8086L28.3198 37.9372L25.1251 41.8421L29.794 45.6619L33.1016 41.619L34.4811 42.7476L29.7758 48.4989ZM27.9708 44.3828L26.6338 43.289L29.5594 39.713L30.8965 40.8069L27.9708 44.3828Z" fill="#263333" fill-opacity="0.6"/>
<path d="M24.4233 57.4566L17.6681 53.5826L16.1403 56.2466L14.5704 55.3463L18.7308 48.0916L20.3007 48.9918L18.773 51.6559L25.5282 55.5299L24.4233 57.4566Z" fill="#263333" fill-opacity="0.6"/>
<path d="M19.8179 69.2551C19.5642 69.9701 19.2125 70.592 18.7629 71.1211C18.3163 71.6415 17.8025 72.0507 17.2215 72.3489C16.6435 72.6384 16.026 72.8071 15.3688 72.8552C14.7147 72.8946 14.0518 72.7951 13.3799 72.5566C12.708 72.3182 12.1307 71.9775 11.6478 71.5345C11.1679 71.083 10.7964 70.5584 10.5333 69.9607C10.2702 69.363 10.1294 68.7214 10.1108 68.0359C10.0922 67.3504 10.2083 66.6545 10.459 65.9482C10.7127 65.2332 11.0613 64.6199 11.5048 64.1081C11.9514 63.5877 12.4636 63.1827 13.0416 62.8932C13.6226 62.5951 14.2417 62.422 14.8989 62.374C15.5474 62.3229 16.2119 62.4181 16.8924 62.6596C17.5642 62.898 18.1444 63.2446 18.6329 63.6992C19.1127 64.1507 19.4842 64.6754 19.7473 65.2731C20.0048 65.8591 20.1429 66.4949 20.1615 67.1803C20.1831 67.8572 20.0686 68.5488 19.8179 69.2551ZM18.0303 68.6353C18.174 68.2304 18.2365 67.8356 18.2179 67.4507C18.2024 67.0573 18.1113 66.6855 17.9446 66.3354C17.7779 65.9853 17.5424 65.6786 17.2382 65.4155C16.937 65.1437 16.571 64.9314 16.1404 64.7785C15.7097 64.6257 15.2918 64.5598 14.8866 64.5809C14.4846 64.5934 14.1085 64.683 13.7584 64.8497C13.4113 65.0078 13.1077 65.2346 12.8476 65.5303C12.5875 65.8259 12.3856 66.1761 12.242 66.581C12.0983 66.9858 12.0342 67.3849 12.0498 67.7784C12.0684 68.1632 12.161 68.5307 12.3277 68.8808C12.4944 69.231 12.7283 69.5419 13.0295 69.8137C13.3338 70.0768 13.7012 70.2848 14.1319 70.4377C14.554 70.5875 14.9704 70.6577 15.381 70.6482C15.7862 70.6271 16.1623 70.5375 16.5093 70.3795C16.8594 70.2128 17.1645 69.9816 17.4246 69.686C17.6847 69.3903 17.8866 69.0401 18.0303 68.6353Z" fill="#263333" fill-opacity="0.6"/>
<path d="M16.3676 81.8699L6.9361 80.0953L7.34679 77.9126L16.7783 79.6872L16.3676 81.8699Z" fill="#263333" fill-opacity="0.6"/>
<path d="M15.8814 91.3978C15.8412 92.1645 15.7023 92.894 15.4647 93.5863C15.2179 94.2781 14.919 94.8299 14.568 95.2417L12.9371 94.4012C13.2507 94.0057 13.5179 93.5347 13.7387 92.9879C13.9509 92.4316 14.0721 91.8659 14.1022 91.2909C14.1252 90.8528 14.1025 90.4992 14.0342 90.2302C13.9573 89.9516 13.8446 89.7443 13.6961 89.6084C13.5476 89.4725 13.373 89.3993 13.1722 89.3888C12.9166 89.3754 12.7106 89.4653 12.554 89.6584C12.3883 89.8511 12.2512 90.1093 12.1428 90.4331C12.0251 90.7565 11.9147 91.1168 11.8115 91.5141C11.6997 91.9018 11.5694 92.2931 11.4206 92.688C11.2722 93.0738 11.089 93.4257 10.871 93.7438C10.653 94.0619 10.3742 94.3173 10.0346 94.51C9.6955 94.6936 9.27038 94.772 8.75924 94.7452C8.21159 94.7165 7.72179 94.5444 7.28985 94.2289C6.84925 93.9038 6.51215 93.4377 6.27853 92.8305C6.03627 92.2137 5.9388 91.4536 5.98614 90.5499C6.0177 89.9475 6.1218 89.3581 6.29844 88.7816C6.46595 88.2046 6.7029 87.6999 7.00928 87.2674L8.65744 88.0402C8.37844 88.4741 8.1679 88.9115 8.02581 89.3526C7.8746 89.7931 7.78775 90.2279 7.76528 90.6569C7.74281 91.0859 7.7746 91.4399 7.86065 91.719C7.94671 91.9981 8.06878 92.2012 8.22686 92.3285C8.37581 92.4553 8.55525 92.5242 8.76518 92.5352C9.01162 92.5481 9.21769 92.4582 9.38337 92.2655C9.53993 92.0724 9.67246 91.8139 9.78095 91.4901C9.88943 91.1663 9.9996 90.8105 10.1114 90.4228C10.2237 90.026 10.3495 89.6345 10.4887 89.2482C10.6284 88.8528 10.8073 88.4961 11.0253 88.178C11.2433 87.8599 11.5219 87.6091 11.861 87.4255C12.2006 87.2328 12.6214 87.1496 13.1234 87.1759C13.6619 87.2041 14.1469 87.3805 14.5784 87.7051C15.0098 88.0298 15.3467 88.5005 15.589 89.1172C15.8317 89.7249 15.9292 90.4851 15.8814 91.3978Z" fill="#263333" fill-opacity="0.6"/>
<path d="M16.1029 102.981L6.53925 103.78L6.35435 101.566L15.918 100.767L16.1029 102.981Z" fill="#263333" fill-opacity="0.6"/>
<path d="M18.7044 115.42L9.33503 117.497L7.76495 110.417L9.50499 110.031L10.5942 114.943L18.2236 113.251L18.7044 115.42ZM14.8461 114.169L13.1061 114.555L12.1088 110.057L13.8488 109.671L14.8461 114.169Z" fill="#263333" fill-opacity="0.6"/>
<path d="M82.7656 43.2539C78.988 65.3909 88.1975 80.2564 101.603 96.5889L102.362 96.9746C102.434 96.4968 102.654 96.0113 102.922 95.6152C109.67 85.6879 122.744 80.1311 121.801 66.168C121.64 63.7808 120.891 61.4343 120.26 59.1494C123.807 61.8332 126.292 66.8401 127.286 71.1621C130.438 84.8339 122.614 88.7115 114.501 97.2305C113.629 98.1455 108.136 104.014 108.039 104.563C109.128 106.621 110.608 108.459 111.699 110.519C116.19 118.997 116.382 128.247 113.425 137.303C111.441 143.376 107.533 149.719 102.112 153.208C105.703 141.32 107.635 130.187 101.386 118.787C92.8565 103.229 73.8208 88.0111 71.4716 69.7236C69.7668 56.4531 76.8416 42.464 85.1152 32.5674L82.7656 43.2539ZM93.3623 129.994C97.71 129.381 97.9528 136.479 93.7968 136.602C89.5643 136.727 89.1937 130.585 93.3623 129.994ZM91.0507 118.247C98.3403 116.744 96.9836 127.765 90.8086 125.782C87.054 124.576 87.8867 118.899 91.0507 118.247ZM85.4257 106.49C90.1642 105.514 93.1158 110.615 90.0566 114.188C88.7531 115.712 86.2558 116.129 84.459 115.265C80.9295 113.572 81.4999 107.298 85.4257 106.49ZM77.5117 95.252C84.2182 94.2965 86.2679 103.201 80.8213 105.972C72.8902 110.005 69.5269 96.3894 77.5117 95.252ZM68.5586 86.5566C72.1802 85.9383 74.4364 88.3998 73.9687 91.9678C73.7793 93.4067 72.1694 95.3409 70.7382 95.6348C64.0647 97.0098 63.0578 87.4917 68.5556 86.5537L68.5586 86.5566ZM62.1845 77.6006C67.8227 77.1255 67.3088 87.3204 60.9599 85.084C57.1772 83.7523 58.3762 77.9226 62.1845 77.6006ZM100.51 60.2305C113.982 58.1297 115.27 77.9148 102.974 79.0498C91.1727 80.1386 89.8437 61.8918 100.51 60.2305Z" fill="url(#paint0_linear_187_156)"/>
<defs>
<linearGradient id="paint0_linear_187_156" x1="80.4437" y1="-25.1237" x2="144.461" y2="-21.1427" gradientUnits="userSpaceOnUse">
<stop stop-color="#43B8B4"/>
<stop offset="1" stop-color="#1E5250"/>
</linearGradient>
</defs>
</svg>
