<svg width="125" height="125" viewBox="0 0 125 125" fill="none" xmlns="http://www.w3.org/2000/svg">
<path d="M51.7656 12.2539C47.988 34.3909 57.1975 49.2564 70.6035 65.5889L71.3623 65.9746C71.4338 65.4968 71.6536 65.0113 71.9218 64.6152C78.6695 54.6879 91.7438 49.1311 90.8007 35.168C90.6397 32.7808 89.891 30.4343 89.2597 28.1494C92.8072 30.8332 95.2919 35.8401 96.2861 40.1621C99.4376 53.8339 91.6135 57.7115 83.5009 66.2305C82.6293 67.1455 77.1361 73.0139 77.039 73.5635C78.1278 75.6209 79.6078 77.4586 80.6992 79.5186C85.19 87.9967 85.382 97.247 82.4248 106.303C80.4414 112.376 76.5333 118.719 71.1123 122.208C74.7033 110.32 76.6349 99.1865 70.3857 87.7871C61.8564 72.2293 42.8208 57.0111 40.4716 38.7236C38.7668 25.4531 45.8416 11.464 54.1152 1.56738L51.7656 12.2539ZM62.3623 98.9941C66.7099 98.3807 66.9528 105.479 62.7968 105.602C58.5643 105.727 58.1937 99.5847 62.3623 98.9941ZM60.0507 87.2471C67.3403 85.7442 65.9836 96.7654 59.8085 94.7822C56.054 93.5759 56.8867 87.8991 60.0507 87.2471ZM54.4257 75.4902C59.1642 74.5142 62.1158 79.6154 59.0566 83.1885C57.7531 84.7118 55.2558 85.1286 53.4589 84.2646C49.9295 82.5724 50.4999 76.2979 54.4257 75.4902ZM46.5117 64.252C53.2182 63.2965 55.2679 72.2011 49.8212 74.9717C41.8901 79.0049 38.5269 65.3894 46.5117 64.252ZM37.5585 55.5566C41.1801 54.9383 43.4364 57.3998 42.9687 60.9678C42.7792 62.4067 41.1694 64.3409 39.7382 64.6348C33.0647 66.0098 32.0578 56.4917 37.5556 55.5537L37.5585 55.5566ZM31.1845 46.6006C36.8227 46.1255 36.3088 56.3204 29.9599 54.084C26.1772 52.7523 27.3762 46.9226 31.1845 46.6006ZM69.5097 29.2305C82.982 27.1297 84.2701 46.9148 71.9736 48.0498C60.1727 49.1386 58.8437 30.8918 69.5097 29.2305Z" fill="url(#paint0_linear_187_300)"/>
<defs>
<linearGradient id="paint0_linear_187_300" x1="49.4437" y1="-56.1237" x2="113.461" y2="-52.1427" gradientUnits="userSpaceOnUse">
<stop stop-color="#43B8B4"/>
<stop offset="1" stop-color="#1E5250"/>
</linearGradient>
</defs>
</svg>
